<?xml version="1.0" standalone="no"?>
<!DOCTYPE svg PUBLIC "-//W3C//DTD SVG 20010904//EN"
 "http://www.w3.org/TR/2001/REC-SVG-20010904/DTD/svg10.dtd">
<svg version="1.0" xmlns="http://www.w3.org/2000/svg"
 width="1024.000000pt" height="1024.000000pt" viewBox="0 0 1024.000000 1024.000000"
 preserveAspectRatio="xMidYMid meet">

<g transform="translate(0.000000,1024.000000) scale(0.100000,-0.100000)"
fill="#000000" stroke="none">
<path d="M0 5120 l0 -5120 5120 0 5120 0 0 5120 0 5120 -5120 0 -5120 0 0
-5120z m7195 3286 c125 -33 207 -106 271 -242 23 -50 48 -119 55 -155 14 -78
13 -2633 -1 -2741 -11 -79 -34 -140 -91 -242 -109 -195 -241 -291 -489 -356
-115 -31 -596 -138 -658 -147 l-33 -5 3 63 3 63 45 12 c68 17 302 69 520 114
254 53 312 79 425 193 62 62 91 100 118 157 68 142 65 92 70 1188 l4 994 -26
-6 c-110 -24 -396 -76 -417 -76 -27 0 -30 5 -37 67 -5 40 -3 43 27 52 17 6
101 21 186 35 85 14 178 32 207 41 l51 15 7 86 c13 153 1 337 -29 444 -57 201
-85 246 -186 299 l-65 33 -130 -5 c-71 -3 -177 -15 -235 -26 -58 -12 -161 -30
-230 -41 -69 -12 -213 -38 -320 -59 -187 -38 -415 -79 -860 -156 -319 -56
-796 -141 -1000 -180 -102 -19 -304 -55 -450 -80 -548 -94 -582 -105 -699
-222 -68 -68 -131 -162 -131 -196 0 -15 6 -18 28 -13 15 3 52 8 82 11 81 9
474 71 630 100 74 14 241 43 370 64 207 35 357 61 655 116 406 75 716 128 719
124 2 -2 1 -30 -1 -61 l-5 -57 -72 -16 c-92 -20 -445 -86 -706 -130 -113 -20
-212 -38 -220 -40 -20 -6 -638 -111 -800 -135 -105 -16 -424 -74 -667 -121
l-61 -12 -6 -81 c-3 -45 -7 -152 -8 -238 -3 -137 -1 -158 12 -158 19 0 373 63
475 84 39 8 207 37 375 65 767 127 1319 220 1450 245 47 9 116 20 154 24 l68
9 -7 -61 c-3 -34 -7 -62 -8 -62 -4 -4 -344 -65 -467 -83 -74 -12 -211 -35
-305 -51 -93 -17 -377 -64 -630 -106 -253 -41 -527 -88 -610 -104 -125 -24
-346 -63 -480 -85 l-30 -5 -3 -1019 c-2 -680 1 -1042 8 -1087 23 -154 148
-325 260 -358 29 -9 74 -16 98 -16 60 0 293 40 552 95 118 26 379 79 580 120
328 66 468 96 1050 219 91 19 177 37 193 41 27 7 27 7 27 -46 0 -30 -4 -59 -8
-65 -8 -13 -135 -42 -657 -149 -198 -41 -448 -93 -555 -115 -107 -22 -271 -56
-365 -75 -93 -18 -208 -42 -255 -54 -199 -47 -493 -101 -548 -101 -209 0 -402
165 -469 400 -17 62 -18 135 -18 1405 0 1486 -5 1371 65 1585 59 181 177 322
333 399 48 23 105 48 127 56 37 13 315 66 605 115 66 11 203 35 305 54 102 19
250 46 330 60 80 14 206 37 280 51 145 26 269 48 505 90 83 15 222 40 310 56
88 16 322 59 520 94 198 36 421 76 495 90 74 14 146 27 160 29 41 7 181 -3
235 -18z m-321 -356 c4 -5 7 -129 6 -277 -2 -147 -3 -476 -4 -730 -1 -524 6
-484 -86 -515 -106 -37 -117 -35 -162 31 -31 45 -32 49 -41 206 -5 88 -6 266
-3 395 7 296 29 448 84 585 12 28 28 84 37 125 17 77 61 159 98 185 20 14 52
12 71 -5z m470 -23 c9 -7 20 -31 23 -54 4 -33 2 -43 -13 -51 -29 -15 -215 -51
-304 -58 l-79 -7 -6 36 c-12 61 -5 71 55 85 30 7 100 23 155 36 119 28 145 30
169 13z m-1031 -26 c24 -30 25 -32 32 -298 14 -474 12 -669 -8 -746 -29 -116
-94 -223 -179 -296 -22 -19 -46 -49 -53 -65 -11 -25 -12 -224 -6 -996 4 -531
4 -1005 1 -1054 -4 -80 -7 -90 -25 -92 -11 -2 -39 -7 -63 -12 -23 -5 -44 -7
-46 -3 -9 14 -8 255 2 776 6 297 11 709 13 916 2 371 2 377 -20 423 -16 33
-40 58 -84 88 -149 104 -165 183 -169 851 -2 407 -2 407 20 429 21 21 22 21
41 3 12 -10 23 -32 26 -49 3 -17 9 -209 13 -426 l7 -395 28 -3 c60 -7 59 -18
51 423 -7 431 -4 495 25 495 44 0 46 -12 56 -464 l10 -431 27 -9 c58 -21 58
-24 58 419 0 221 3 423 6 449 8 52 26 68 51 44 13 -14 15 -72 14 -438 -2 -368
0 -425 14 -446 19 -30 38 -30 65 -2 19 21 20 33 20 458 0 378 2 438 16 458 20
29 27 28 57 -7z m267 -111 c0 -37 -33 -105 -55 -114 -42 -16 -53 -7 -60 45 -8
58 -5 63 50 83 58 21 65 20 65 -14z m-2504 -1356 c33 -22 54 -64 54 -109 0
-31 -4 -38 -32 -49 -18 -8 -65 -19 -104 -26 -68 -12 -72 -12 -107 11 -34 22
-37 27 -37 74 0 82 6 92 58 103 75 15 140 14 168 -4z m-251 -14 c3 -5 3 -37
-1 -71 -7 -61 -27 -87 -45 -58 -10 16 -12 99 -3 123 7 18 39 22 49 6z m-120
-76 c6 -46 6 -47 -42 -93 -26 -26 -53 -55 -60 -63 -8 -11 -37 -19 -86 -23
-101 -10 -111 -7 -115 34 -8 81 44 135 160 167 46 12 95 23 109 23 24 1 27 -3
34 -45z m3149 -91 c14 -169 -4 -381 -43 -498 l-16 -50 -49 0 c-69 0 -85 23
-88 135 -4 135 14 439 26 449 16 13 106 39 137 40 25 1 26 -1 33 -76z m-3006
-29 c24 -15 25 -23 22 -149 -2 -78 -7 -88 -61 -116 -46 -23 -80 -24 -119 -4
-35 18 -44 55 -38 150 4 73 21 98 83 126 42 19 74 17 113 -7z m282 -78 l0 -74
-57 -6 c-32 -4 -79 -10 -105 -13 l-48 -6 0 66 0 66 57 11 c31 7 77 16 102 20
25 4 47 8 49 9 1 0 2 -32 2 -73z m2919 -20 c88 -93 0 -325 -89 -236 -34 34
-26 50 25 50 36 0 45 3 45 18 0 9 -15 24 -32 32 -42 20 -72 62 -64 88 12 36
47 72 70 72 12 0 33 -11 45 -24z m-3459 -75 l0 -69 -63 -11 c-102 -18 -126
-15 -133 14 -3 14 -3 45 0 70 7 44 7 44 54 50 26 3 54 8 62 9 8 2 30 4 48 5
l32 1 0 -69z m2878 -11 c18 -17 22 -32 22 -88 0 -115 -28 -171 -92 -187 -21
-5 -33 -1 -52 19 -31 30 -33 59 -7 85 16 16 17 20 5 25 -23 9 -18 88 7 120 37
48 83 57 117 26z m-2340 -66 c5 -56 -14 -109 -48 -137 -29 -25 -78 -39 -177
-53 l-53 -7 0 62 c0 66 25 119 66 142 21 11 180 39 199 35 6 -2 11 -20 13 -42z
m1664 -65 c14 -19 21 -48 25 -105 4 -68 1 -84 -16 -111 -21 -33 -58 -50 -86
-39 -18 6 -56 67 -52 81 2 6 23 12 48 15 l44 6 -40 17 c-21 10 -43 23 -47 30
-16 26 -8 76 18 107 33 39 77 39 106 -1z m-2122 1 c22 -11 46 -20 55 -20 12 0
15 -13 15 -60 0 -58 -1 -60 -33 -73 -18 -8 -76 -25 -129 -37 -86 -21 -100 -22
-123 -10 -38 20 -55 60 -55 128 l0 60 73 15 c102 21 151 20 197 -3z m1892 -22
c25 -7 43 -20 48 -34 10 -26 -2 -85 -14 -66 -4 7 -12 12 -19 12 -6 0 3 -13 21
-30 l33 -29 -20 -39 c-26 -52 -75 -92 -111 -92 -31 0 -70 39 -70 71 0 23 16
25 24 4 7 -19 40 -20 55 -2 14 18 4 27 -31 27 -23 0 -28 4 -28 24 0 13 -7 29
-15 36 -24 20 -18 70 12 102 29 31 55 34 115 16z m-225 -50 c15 -17 23 -43 28
-100 6 -69 4 -82 -14 -112 -23 -36 -71 -62 -96 -52 -38 14 -61 166 -34 219 20
38 52 67 74 67 12 0 31 -10 42 -22z m-333 -71 c32 -32 45 -146 23 -200 -29
-67 -91 -85 -115 -31 -16 35 -15 46 6 43 60 -6 73 22 18 41 -54 18 -62 71 -21
133 30 43 56 47 89 14z m-193 -36 c26 -26 29 -37 30 -93 2 -91 0 -100 -28
-130 -36 -38 -61 -41 -89 -11 -33 35 -39 61 -20 82 9 10 16 23 16 29 0 6 11
19 25 30 14 11 25 25 25 31 0 18 -24 12 -38 -9 -19 -31 -42 -25 -42 11 0 34
46 89 75 89 9 0 30 -13 46 -29z m-190 -41 c10 -15 20 -53 24 -95 5 -63 3 -74
-17 -105 -13 -19 -36 -41 -50 -50 -26 -14 -29 -13 -58 15 -38 36 -38 72 0 66
53 -7 64 -6 68 12 3 13 -3 17 -27 17 -36 0 -41 18 -11 45 24 21 25 32 6 51
-13 12 -15 11 -18 -8 -2 -15 -10 -23 -23 -23 -29 0 -31 44 -4 79 28 36 83 34
110 -4z m-220 -23 c26 -20 37 -49 44 -113 6 -47 3 -68 -9 -92 -31 -60 -96 -81
-130 -43 -21 24 -40 150 -27 184 11 30 67 77 89 77 9 0 24 -6 33 -13z m2683
-51 c91 -53 139 -153 139 -287 0 -76 -4 -94 -31 -153 -67 -143 -218 -240 -329
-210 -31 9 -29 27 13 114 88 183 82 290 -22 422 -48 62 -53 77 -26 100 57 52
181 58 256 14z m-3001 -16 c32 -25 42 -71 32 -145 -12 -97 -82 -149 -121 -90
-19 29 -12 45 22 45 23 0 24 3 24 65 0 64 -10 81 -28 48 -15 -25 -42 -9 -42
26 0 35 33 71 66 71 12 0 33 -9 47 -20z m-186 -42 c18 -17 23 -32 23 -70 0
-60 -31 -98 -80 -98 -19 0 -30 -5 -30 -14 0 -24 15 -26 48 -5 18 10 37 19 42
19 11 0 13 -30 4 -55 -7 -18 -55 -45 -80 -45 -28 0 -54 31 -54 64 0 34 32 94
55 102 8 4 15 17 15 31 0 23 -3 25 -35 19 -31 -6 -35 -4 -35 13 0 29 39 61 74
61 17 0 40 -9 53 -22z m2820 -15 c38 -15 74 -38 93 -59 37 -43 63 -129 64
-214 0 -61 -4 -73 -49 -153 l-49 -87 -22 20 c-72 68 -102 208 -69 315 18 56
18 58 0 71 -10 8 -41 14 -67 14 -92 0 -164 -59 -194 -157 -17 -54 -11 -112 11
-114 8 -1 20 -2 26 -3 6 0 16 -9 23 -18 7 -10 18 -18 25 -18 6 0 11 -5 11 -10
0 -6 11 -15 25 -20 14 -5 25 -13 25 -17 0 -5 36 -35 80 -67 44 -33 80 -64 80
-68 0 -14 -120 -67 -166 -74 -24 -3 -58 -1 -78 6 -51 17 -132 99 -163 166 -23
50 -25 65 -21 152 3 83 8 106 35 162 38 80 92 144 147 172 83 43 127 43 233 1z
m-3020 -15 c36 -33 32 -97 -8 -137 -17 -17 -35 -31 -40 -31 -5 0 -9 -4 -9 -9
0 -4 11 -6 24 -4 17 4 27 -1 36 -16 9 -19 7 -26 -19 -52 -49 -48 -81 -34 -106
48 -5 18 3 33 39 71 46 49 59 82 32 82 -8 0 -18 -4 -21 -10 -3 -5 -17 -10 -31
-10 -34 0 -33 42 2 69 34 27 72 27 101 -1z m-215 -37 c31 -27 33 -34 36 -108
3 -69 1 -82 -20 -113 -31 -45 -70 -60 -106 -39 -15 8 -28 24 -30 35 -2 17 5
22 50 30 63 11 69 30 15 49 -47 16 -77 42 -77 67 0 43 53 108 87 108 7 0 27
-13 45 -29z m2127 -133 c30 -31 34 -53 16 -87 -18 -35 -36 -46 -88 -56 -97
-19 -121 117 -27 154 42 16 78 12 99 -11z m-295 -59 c34 -27 34 -71 0 -116
-29 -38 -51 -41 -88 -12 -35 28 -36 85 -1 123 29 31 53 33 89 5z m-485 -96
c14 -17 19 -33 15 -47 -10 -34 -46 -66 -73 -66 -14 0 -102 -18 -194 -40 -181
-43 -194 -42 -216 8 -14 29 -1 57 37 76 15 7 84 25 153 40 69 14 143 32 165
40 60 22 90 20 113 -11z m-893 -178 c15 -23 15 -27 -3 -62 -21 -44 -20 -43
-198 -73 -71 -12 -170 -33 -219 -45 l-89 -23 -23 25 c-30 32 -30 55 -1 87 19
21 46 30 182 56 88 17 185 37 215 44 89 21 117 20 136 -9z m604 -259 c0 -20
-6 -25 -45 -30 -55 -9 -58 -23 -7 -32 20 -4 40 -9 45 -11 14 -8 -15 -44 -49
-60 -45 -22 -43 -35 4 -31 34 3 37 1 40 -23 3 -27 -15 -39 -64 -39 -35 0 -42
19 -45 125 l-4 99 40 12 c65 20 85 18 85 -10z m-171 -83 c0 -102 -11 -157 -29
-160 -8 -2 -30 19 -49 47 -18 28 -37 50 -42 50 -4 0 -9 -25 -11 -55 -5 -97
-23 -61 -26 54 -2 94 0 109 14 115 19 7 44 -10 44 -30 0 -7 11 -26 24 -41 l24
-28 7 63 c6 51 11 62 26 62 17 0 19 -8 18 -77z m-225 21 c9 -24 7 -197 -3
-213 -5 -7 -13 -11 -18 -8 -11 7 -27 213 -18 227 9 15 32 12 39 -6z m-124 -41
c62 -56 46 -151 -35 -198 -66 -39 -71 -36 -79 52 -8 98 -8 158 1 166 3 4 24 7
45 7 27 0 46 -8 68 -27z m-176 -19 c3 -9 6 -60 6 -114 0 -80 -3 -99 -16 -104
-26 -10 -27 -8 -20 42 5 39 4 44 -6 31 -13 -16 -78 -53 -83 -47 -1 2 -10 17
-18 33 -16 30 -16 29 -10 -34 6 -58 5 -63 -13 -59 -17 3 -20 16 -26 98 -10
148 7 177 58 100 15 -22 32 -39 38 -37 6 2 24 27 39 55 30 54 41 62 51 36z
m-266 -162 c2 -100 0 -122 -12 -122 -18 0 -25 29 -26 125 -2 126 -2 127 18
123 15 -3 17 -18 20 -126z m-100 86 c22 -19 13 -28 -28 -28 -22 0 -40 -5 -40
-10 0 -6 18 -28 40 -49 51 -48 52 -77 6 -126 -38 -40 -51 -39 -91 5 -16 18
-17 23 -5 31 8 5 22 8 30 5 8 -2 21 -5 29 -7 8 -2 16 3 18 13 3 10 -12 27 -41
48 -50 34 -58 60 -28 96 34 42 74 50 110 22z m3942 -318 c0 -73 1 -72 -153
-101 l-117 -22 0 -118 c0 -66 4 -119 9 -119 5 0 45 7 90 15 45 9 86 13 91 10
6 -3 10 -28 10 -55 0 -55 7 -51 -135 -82 l-60 -13 -3 -119 -3 -118 62 7 c34 4
76 11 93 16 17 5 48 9 69 9 l38 0 -3 -62 -3 -63 -50 -8 c-27 -5 -108 -22 -179
-38 -71 -16 -130 -28 -132 -26 -2 2 -5 199 -6 439 l-3 436 170 34 c234 48 215
50 215 -22z m-548 -417 c2 -208 2 -407 -1 -442 -6 -63 -6 -64 -43 -77 -44 -15
-40 -19 -88 94 -58 140 -162 367 -171 376 -5 6 -9 -36 -9 -110 0 -128 -10
-382 -15 -400 -3 -11 -82 -40 -90 -33 -2 3 -5 200 -6 439 l-1 435 33 7 c19 4
39 6 44 4 6 -2 60 -105 120 -230 61 -124 114 -226 119 -226 4 0 5 38 1 85 -4
47 -4 164 0 259 l8 175 36 9 c20 6 41 10 47 11 8 1 12 -111 16 -376z m-589 75
c4 -94 4 -292 0 -440 -7 -295 0 -270 -75 -284 l-38 -6 -1 426 c-1 234 -2 431
-3 437 -1 12 55 36 90 38 20 1 21 -5 27 -171z m-377 43 c38 -23 77 -73 100
-127 26 -60 31 -286 10 -394 -26 -128 -92 -240 -177 -300 -15 -11 -76 -33
-136 -48 l-108 -28 -1 405 c0 223 -4 422 -7 443 l-8 36 78 15 c115 22 211 21
249 -2z m-436 -120 c0 -6 -35 -97 -77 -203 -70 -175 -78 -201 -81 -275 -4 -73
-6 -82 -25 -87 -41 -11 -42 -8 -39 73 3 78 3 81 -68 251 -39 95 -69 178 -66
186 9 22 44 16 62 -10 8 -14 35 -71 59 -127 50 -117 40 -121 111 48 24 59 54
118 66 130 21 23 58 31 58 14z m-470 -356 c0 -157 -3 -285 -7 -285 -5 0 -18
-3 -30 -6 -22 -6 -22 -6 -25 147 l-3 154 -19 -55 c-30 -86 -81 -194 -100 -209
-25 -21 -48 6 -92 112 l-39 92 -3 -153 -3 -153 -32 3 -32 3 -3 267 c-3 261 2
308 29 308 6 0 24 -30 40 -67 53 -119 124 -261 130 -262 4 -1 19 38 34 86 62
193 115 303 147 303 4 0 8 -128 8 -285z m-525 203 c-24 -111 -104 -357 -143
-443 l-47 -100 -5 -185 -5 -184 -25 -7 c-14 -4 -35 -7 -47 -8 l-23 -1 2 193 2
193 -42 79 c-23 44 -65 141 -93 215 -29 74 -58 143 -66 152 -14 15 -11 18 24
27 87 23 93 23 97 10 12 -42 79 -214 106 -274 29 -65 33 -69 45 -51 8 11 22
44 30 75 9 31 36 117 60 191 41 126 46 135 72 141 60 14 65 12 58 -23z m-675
-175 c19 -65 85 -337 156 -642 18 -79 31 -148 28 -152 -5 -9 -70 -29 -95 -29
-13 0 -19 19 -29 94 -7 51 -15 98 -19 105 -5 8 -35 6 -106 -7 l-99 -18 -21
-114 -21 -115 -52 -14 c-29 -8 -54 -12 -57 -10 -2 3 2 32 10 64 7 33 25 121
40 195 15 74 55 248 90 385 35 138 65 261 67 275 2 14 14 30 28 37 48 24 58
18 80 -54z m-475 -72 c85 -38 117 -107 118 -252 0 -70 -4 -94 -25 -140 -42
-91 -115 -146 -228 -170 l-50 -11 0 -163 0 -163 -44 -11 c-25 -6 -52 -11 -60
-11 -14 0 -16 53 -18 450 -3 418 -2 451 14 456 44 14 158 32 203 33 29 0 67
-7 90 -18z m3840 -447 c29 -12 47 -61 39 -112 -13 -90 -44 -116 -98 -83 -38
24 -52 74 -36 131 17 59 50 81 95 64z m159 -40 c29 -11 6 -24 -42 -24 -44 1
-46 2 -28 15 21 16 44 19 70 9z m-407 -36 c32 -30 30 -73 -6 -109 -42 -41 -85
-40 -111 4 -27 44 -25 83 6 114 20 20 31 24 57 19 17 -3 41 -16 54 -28z m-399
-25 c-3 -32 -7 -38 -34 -45 l-31 -8 1 -105 c1 -84 -2 -108 -14 -115 -30 -19
-35 -4 -32 105 l4 108 -46 -6 -46 -7 0 35 c0 18 5 37 12 41 15 9 123 31 161
33 27 1 28 -1 25 -36z m-276 -64 c8 -55 10 -187 2 -216 -8 -30 -41 -36 -62
-12 -9 11 -36 41 -60 67 -41 45 -43 46 -35 17 11 -42 10 -138 -2 -141 -28 -10
-34 15 -35 141 -1 72 -1 136 -1 143 2 30 42 7 92 -53 l54 -64 2 52 c4 81 13
119 26 114 7 -2 15 -24 19 -48z m-349 -58 c19 -33 66 -162 74 -204 10 -50 -39
-80 -51 -31 -6 24 -10 26 -42 21 -42 -7 -63 -22 -75 -54 -5 -13 -16 -23 -25
-23 -23 0 -13 54 25 135 16 35 32 78 36 96 8 44 26 89 34 89 4 0 14 -13 24
-29z m-234 -66 c13 -12 24 -35 24 -49 0 -23 -8 -37 -48 -93 -7 -9 -3 -25 14
-54 19 -34 20 -43 10 -50 -24 -15 -37 -10 -69 31 -17 22 -36 38 -41 34 -5 -3
-9 -28 -9 -55 0 -47 -2 -50 -22 -47 -23 3 -23 4 -19 143 2 77 5 142 6 143 2 2
21 10 42 18 46 17 80 10 112 -21z m-271 -111 c4 -120 -2 -144 -47 -193 -48
-52 -80 -54 -115 -8 -24 32 -26 41 -26 150 l0 117 25 0 25 0 0 -104 c0 -85 3
-105 16 -110 57 -22 74 6 74 123 0 95 9 126 35 118 5 -2 11 -43 13 -93z m-354
-21 c42 -87 76 -178 76 -204 0 -38 -36 -50 -60 -19 -14 18 -22 20 -53 15 -32
-6 -38 -12 -47 -46 -8 -29 -16 -39 -30 -39 -29 0 -26 43 11 148 17 48 37 108
45 135 8 26 21 47 28 47 7 0 20 -17 30 -37z m-184 -39 c0 -31 -2 -34 -30 -34
l-30 0 0 -107 c0 -115 -4 -129 -35 -135 -18 -3 -19 2 -16 111 l3 114 -24 -7
c-48 -15 -53 -13 -53 24 0 34 1 34 60 46 33 7 71 17 85 22 33 13 40 7 40 -34z
m-282 -49 c21 -46 16 -56 -26 -49 -28 4 -41 2 -52 -10 -16 -21 -8 -30 57 -65
60 -33 67 -64 27 -122 -45 -65 -81 -72 -131 -26 -38 35 -30 51 22 44 89 -13
103 24 26 66 -27 15 -54 33 -60 41 -18 21 -3 63 39 107 44 47 81 52 98 14z
m-235 -46 c9 -35 -2 -46 -54 -53 -46 -6 -49 -8 -49 -36 0 -27 3 -29 43 -32 34
-2 43 -7 45 -24 3 -18 -5 -23 -42 -33 -40 -10 -46 -15 -46 -37 0 -25 1 -26 49
-19 47 6 49 5 55 -20 4 -15 6 -29 4 -30 -2 -2 -38 -11 -80 -22 l-78 -19 -2
133 c-1 73 -2 143 -2 154 -1 18 9 25 64 39 85 23 87 23 93 -1z m-289 -90 c34
-40 34 -88 0 -128 l-25 -31 31 -44 c18 -24 29 -49 26 -55 -13 -21 -45 -11 -67
22 -27 39 -49 58 -60 51 -5 -3 -9 -30 -9 -60 0 -51 -1 -54 -25 -54 l-25 0 0
139 c0 77 -2 146 -5 154 -7 16 41 34 97 36 29 1 41 -5 62 -30z m-399 -134 c28
-27 31 -52 11 -98 -33 -79 -97 -87 -124 -15 -18 45 -11 77 24 111 33 33 58 34
89 2z m-348 -74 c38 -57 23 -151 -30 -185 -42 -28 -53 -17 -86 84 -7 24 -8 47
-1 69 22 78 77 92 117 32z"/>
<path d="M6984 6165 c-4 -9 -4 -18 -1 -21 10 -10 48 7 44 19 -6 19 -36 20 -43
2z"/>
<path d="M6377 6074 c-16 -16 -5 -24 34 -24 28 0 39 4 37 13 -5 13 -60 22 -71
11z"/>
<path d="M6354 5959 c-2 -4 3 -12 11 -19 16 -13 66 -2 72 16 4 11 -76 13 -83
3z"/>
<path d="M5467 5923 c-4 -3 -7 -12 -7 -20 0 -15 48 -17 70 -3 13 9 13 11 0 20
-17 11 -54 13 -63 3z"/>
<path d="M5267 5883 c-8 -8 -9 -43 -1 -43 16 0 44 23 44 35 0 15 -31 21 -43 8z"/>
<path d="M5268 5773 c-16 -2 -28 -8 -28 -13 0 -13 46 -24 65 -16 18 7 20 37 3
35 -7 -1 -25 -4 -40 -6z"/>
<path d="M4936 5784 c-9 -24 -7 -28 9 -14 17 14 20 30 6 30 -5 0 -12 -7 -15
-16z"/>
<path d="M4710 5670 c0 -5 7 -15 15 -24 13 -12 21 -13 40 -4 39 18 31 37 -15
36 -22 0 -40 -4 -40 -8z"/>
<path d="M4346 5705 c-24 -24 -20 -45 9 -45 31 0 43 26 23 46 -13 14 -17 14
-32 -1z"/>
<path d="M4300 5601 c0 -13 36 -41 52 -41 15 0 45 27 37 34 -9 7 -89 14 -89 7z"/>
<path d="M3410 5536 c-13 -16 -3 -26 27 -26 13 0 23 6 23 14 0 18 -37 27 -50
12z"/>
<path d="M3940 4665 c0 -71 2 -72 48 -32 38 35 27 75 -25 91 -22 7 -23 5 -23
-59z"/>
<path d="M5725 3933 c-19 -4 -20 -12 -20 -308 0 -344 -6 -324 81 -280 58 29
88 70 116 157 17 54 19 85 16 208 -3 151 -11 182 -57 217 -15 12 -92 15 -136
6z"/>
<path d="M3738 3384 c-3 -5 -17 -58 -32 -119 -15 -60 -30 -125 -35 -142 l-9
-33 71 6 c40 4 74 8 76 10 2 2 -6 41 -17 86 -11 46 -23 103 -27 128 -8 50 -20
77 -27 64z"/>
<path d="M3172 3413 l-32 -4 2 -162 3 -162 40 4 c87 7 132 52 146 144 12 74 0
136 -32 168 -19 19 -47 22 -127 12z"/>
<path d="M5545 2720 c-8 -27 1 -40 29 -40 28 0 50 24 42 45 -9 23 -63 19 -71
-5z"/>
<path d="M4996 2562 c-21 -40 -20 -42 9 -42 19 0 25 5 25 23 0 12 -4 28 -9 36
-7 11 -13 7 -25 -17z"/>
<path d="M3940 2361 c0 -36 3 -41 23 -41 29 0 60 32 55 57 -2 13 -14 19 -41
21 l-37 3 0 -40z"/>
</g>
</svg>
